<svg width="158" height="106" viewBox="0 0 158 106" fill="none" xmlns="http://www.w3.org/2000/svg">
<path d="M134.265 38H130.316L103.468 6.12969C101.988 4.37324 100.111 2.95533 97.9755 1.98086C95.8403 1.00638 93.5016 0.500281 91.1326 0.5H38.3372C31.8781 0.5 26.0707 4.23359 23.6717 9.92891L11.8469 38.5297C5.04482 40.2031 0 46.018 0 53V79.25C0 81.3219 1.76717 83 3.94898 83H15.7959C15.7959 95.4266 26.4039 105.5 39.4898 105.5C52.5757 105.5 63.1837 95.4266 63.1837 83H94.7755C94.7755 95.4266 105.383 105.5 118.469 105.5C131.555 105.5 142.163 95.4266 142.163 83H154.01C156.192 83 157.959 81.3219 157.959 79.25V60.5C157.959 48.0734 147.351 38 134.265 38ZM39.4898 94.25C32.9567 94.25 27.6429 89.2039 27.6429 83C27.6429 76.7961 32.9567 71.75 39.4898 71.75C46.0229 71.75 51.3367 76.7961 51.3367 83C51.3367 89.2039 46.0229 94.25 39.4898 94.25ZM57.2602 38H28.8596L38.3372 15.5H57.2602V38ZM69.1071 38V15.5H91.1326L110.088 38H69.1071ZM118.469 94.25C111.936 94.25 106.622 89.2039 106.622 83C106.622 76.7961 111.936 71.75 118.469 71.75C125.002 71.75 130.316 76.7961 130.316 83C130.316 89.2039 125.002 94.25 118.469 94.25Z" fill="#FC570C"/>
</svg>
